<svg id="svgSprite" xmlns="http://www.w3.org/2000/svg" xmlns:xlink="http://www.w3.org/1999/xlink"><defs><symbol viewBox="0 0 28 28" fill="none" id="CSV">
<path d="M24.0654 13.1526H23.9588V6.68043C23.9588 5.85552 23.6376 5.08005 23.0543 4.49664L19.4622 0.904535C18.8788 0.321236 18.1033 0 17.2784 0H6.26703C4.56411 0 3.17865 1.3854 3.17865 3.08838V13.1526H3.07206C1.92953 13.1526 1 14.0821 1 15.2246V22.1076C1 23.2502 1.92953 24.1797 3.07206 24.1797H3.17865V24.9116C3.17865 26.6145 4.56405 27.9999 6.26703 27.9999H20.8705C22.5734 27.9999 23.9588 26.6145 23.9588 24.9116V24.1797H24.0654C25.208 24.1797 26.1375 23.2502 26.1375 22.1076V15.2247C26.1375 14.0821 25.208 13.1526 24.0654 13.1526ZM18.9834 2.74538L21.3775 5.1395H19.1668C19.0656 5.1395 18.9834 5.05719 18.9834 4.95613V2.74538ZM4.8189 3.08838C4.8189 2.28983 5.46848 1.64025 6.26703 1.64025H17.2784C17.3001 1.64025 17.3216 1.6409 17.3431 1.64183V4.95607C17.3431 5.96167 18.1613 6.77969 19.1668 6.77969H22.3186V13.1526H4.8189V3.08838ZM20.8705 26.3598H6.26703C5.46853 26.3598 4.8189 25.7102 4.8189 24.9117V24.1798H22.3185V24.9117H22.3186C22.3186 25.7102 21.669 26.3598 20.8705 26.3598ZM24.4972 22.1077C24.4972 22.3458 24.3035 22.5395 24.0654 22.5395H23.1392C23.1391 22.5395 23.1389 22.5395 23.1387 22.5395C23.1385 22.5395 23.1384 22.5395 23.1381 22.5395H3.99929C3.99913 22.5395 3.99896 22.5395 3.99875 22.5395C3.99853 22.5395 3.99842 22.5395 3.9982 22.5395H3.07201C2.8339 22.5395 2.64019 22.3458 2.64019 22.1077V15.2247C2.64019 14.9866 2.8339 14.7929 3.07201 14.7929H24.0654C24.3035 14.7929 24.4972 14.9866 24.4972 15.2247V22.1077Z" fill="#005EB8" />
<path d="M9.45542 17.4107C9.59803 17.2596 9.75529 17.154 9.93799 17.0862C10.2502 16.9705 10.5824 16.952 10.9471 17.0121C11.0812 17.0345 11.2508 17.0815 11.4481 17.1532C11.5761 17.1979 11.7172 17.174 11.822 17.0892C11.9269 17.0037 11.9785 16.8695 11.96 16.7362C11.9469 16.6506 11.94 16.5697 11.9369 16.4918C11.9292 16.3184 11.8074 16.1711 11.6378 16.1326C11.4959 16.1002 11.3826 16.0763 11.2986 16.0624C11.213 16.0478 11.1012 16.0347 10.9663 16.0223C10.4144 15.9738 9.99195 16.0247 9.56951 16.1811C9.23726 16.3037 8.94818 16.4949 8.70921 16.7493C8.47255 17.0021 8.29216 17.3197 8.17345 17.6921C8.05782 18.0467 8 18.4205 8 18.8021C8 19.1483 8.05011 19.4828 8.14955 19.7966C8.25439 20.1288 8.42244 20.421 8.64754 20.6638C8.87341 20.9082 9.14784 21.0955 9.4639 21.2196C9.77071 21.3391 10.0976 21.4 10.436 21.4C10.5909 21.4 10.7675 21.3884 10.964 21.3645C11.1598 21.3406 11.368 21.299 11.5908 21.2389C11.7457 21.1973 11.8598 21.0631 11.8744 20.9028C11.8829 20.8164 11.8922 20.7424 11.906 20.6777C11.9361 20.5412 11.8899 20.4002 11.785 20.3077C11.6802 20.2152 11.5337 20.1874 11.4027 20.2321C10.759 20.4564 10.2425 20.4842 9.82776 20.3131C9.65277 20.2414 9.50707 20.1388 9.38065 20.0001C9.25576 19.8636 9.16403 19.6933 9.09927 19.4805C9.03067 19.25 8.99521 19.0049 8.99521 18.7513C8.99521 18.4907 9.0376 18.2348 9.12086 17.9896C9.20103 17.7553 9.30972 17.5656 9.45542 17.4107Z" fill="#005EB8" />
<path d="M15.1846 19.3171C15.1329 19.2169 15.0674 19.1174 14.9841 19.0149C14.9101 18.9232 14.8331 18.8384 14.7167 18.7266L14.3821 18.4059C14.2133 18.2448 14.0776 18.1122 13.9774 18.0097C13.8764 17.9079 13.7901 17.817 13.7176 17.7383C13.6575 17.6728 13.6089 17.6127 13.5727 17.5587C13.5488 17.5225 13.5318 17.4893 13.521 17.4516C13.5125 17.4253 13.5087 17.3968 13.5087 17.3621C13.5087 17.2981 13.5249 17.2403 13.5603 17.1802C13.5958 17.1201 13.6436 17.0746 13.7122 17.0361C13.8286 16.9713 14.0545 16.9613 14.2942 17.0044C14.4021 17.0237 14.5355 17.0623 14.6958 17.117C14.8238 17.1617 14.9649 17.1347 15.0689 17.0484C15.173 16.9613 15.2231 16.8264 15.2023 16.693C15.1892 16.6121 15.1815 16.5373 15.18 16.4695C15.1769 16.2891 15.0489 16.1349 14.8724 16.0994C14.066 15.9329 13.6189 15.9861 13.2458 16.1804C13.0053 16.3045 12.8203 16.4779 12.6954 16.6961C12.5744 16.9073 12.5127 17.1386 12.5127 17.3845C12.5127 17.4855 12.5227 17.5834 12.5412 17.679C12.5613 17.7784 12.589 17.8655 12.6245 17.9503C12.6576 18.0259 12.7047 18.1122 12.7725 18.2124C12.8311 18.2964 12.9028 18.3882 12.9914 18.4876C13.0739 18.5801 13.1595 18.6688 13.2558 18.7613L13.494 18.9787C13.7554 19.2184 13.9381 19.3942 14.0406 19.5083C14.1377 19.617 14.2117 19.7056 14.2626 19.7734C14.295 19.8182 14.3181 19.859 14.3304 19.8937C14.342 19.9261 14.3466 19.96 14.3466 19.9978C14.3466 20.0864 14.3274 20.1604 14.2873 20.2244C14.2487 20.2845 14.1971 20.3277 14.1223 20.3609C13.8386 20.4857 13.4185 20.4218 12.9382 20.1712C12.8134 20.1057 12.6615 20.1134 12.5435 20.1936C12.4264 20.273 12.3624 20.4102 12.3763 20.5513C12.3863 20.6484 12.3917 20.734 12.3917 20.8087C12.3917 20.9706 12.4934 21.1155 12.6461 21.171C12.9035 21.2643 13.1086 21.3237 13.2736 21.3537C13.4378 21.3854 13.6035 21.4 13.7739 21.4C14.0545 21.4 14.3158 21.3491 14.5501 21.2481C14.8092 21.1356 15.0088 20.9652 15.1445 20.7417C15.2771 20.5243 15.3441 20.2745 15.3441 19.9985C15.3441 19.8845 15.331 19.768 15.3048 19.6462C15.2786 19.5329 15.2385 19.4219 15.1846 19.3171Z" fill="#005EB8" />
<path d="M15.7065 16.5796L16.8157 19.9407L17.1511 21.0507C17.1996 21.2203 17.3584 21.3321 17.5327 21.3306L17.693 21.3275L17.8503 21.3306C17.8541 21.3306 17.8572 21.3306 17.8611 21.3306C18.016 21.3306 18.1571 21.2373 18.2164 21.0939C18.3799 20.7046 18.578 20.2629 18.8092 19.7711L19.5948 18.0898C19.8823 17.4708 20.1151 16.9843 20.2932 16.6328C20.3549 16.511 20.3472 16.3653 20.2739 16.2505C20.2007 16.1356 20.075 16.0678 19.9355 16.0732L19.8083 16.0755L19.6819 16.0732C19.5185 16.0608 19.3728 16.1626 19.3119 16.3114C19.2409 16.4825 19.1839 16.6182 19.1376 16.7207L17.7724 19.6894L16.889 16.9597L16.714 16.3515C16.6654 16.1819 16.4981 16.0508 16.3293 16.0732L16.2091 16.0755L16.0873 16.0732C15.9608 16.057 15.8414 16.1256 15.7658 16.2266C15.6887 16.3276 15.6664 16.4594 15.7065 16.5796Z" fill="#005EB8" />
</symbol><symbol viewBox="0 0 28 28" fill="none" id="DOC">
<path d="M24.0654 13.1526H23.9588V6.68043C23.9588 5.85552 23.6376 5.08005 23.0543 4.49664L19.4622 0.904535C18.8788 0.321236 18.1033 0 17.2784 0H6.26703C4.56411 0 3.17865 1.3854 3.17865 3.08838V13.1526H3.07206C1.92953 13.1526 1 14.0821 1 15.2246V22.1076C1 23.2502 1.92953 24.1797 3.07206 24.1797H3.17865V24.9116C3.17865 26.6145 4.56405 27.9999 6.26703 27.9999H20.8705C22.5734 27.9999 23.9588 26.6145 23.9588 24.9116V24.1797H24.0654C25.208 24.1797 26.1375 23.2502 26.1375 22.1076V15.2247C26.1375 14.0821 25.208 13.1526 24.0654 13.1526ZM18.9834 2.74538L21.3775 5.1395H19.1668C19.0656 5.1395 18.9834 5.05719 18.9834 4.95613V2.74538ZM4.8189 3.08838C4.8189 2.28983 5.46848 1.64025 6.26703 1.64025H17.2784C17.3001 1.64025 17.3216 1.6409 17.3431 1.64183V4.95607C17.3431 5.96167 18.1613 6.77969 19.1668 6.77969H22.3186V13.1526H4.8189V3.08838ZM20.8705 26.3598H6.26703C5.46853 26.3598 4.8189 25.7102 4.8189 24.9117V24.1798H22.3185V24.9117H22.3186C22.3186 25.7102 21.669 26.3598 20.8705 26.3598ZM24.4972 22.1077C24.4972 22.3458 24.3035 22.5395 24.0654 22.5395H23.1392C23.1391 22.5395 23.1389 22.5395 23.1387 22.5395C23.1385 22.5395 23.1384 22.5395 23.1381 22.5395H3.99929C3.99913 22.5395 3.99896 22.5395 3.99875 22.5395C3.99853 22.5395 3.99842 22.5395 3.9982 22.5395H3.07201C2.8339 22.5395 2.64019 22.3458 2.64019 22.1077V15.2247C2.64019 14.9866 2.8339 14.7929 3.07201 14.7929H24.0654C24.3035 14.7929 24.4972 14.9866 24.4972 15.2247V22.1077Z" fill="#005EB8" />
<path d="M10.2607 16.0874C9.88422 15.7672 9.38136 15.6071 8.75218 15.6071H7.26057C7.09202 15.6071 6.95427 15.6464 6.84763 15.725C6.74082 15.8038 6.6875 15.8965 6.6875 16.0031V21.3714C6.6875 21.4783 6.74087 21.5709 6.84763 21.6496C6.95432 21.7283 7.09202 21.7675 7.26057 21.7675H8.75223C9.38136 21.7675 9.88427 21.6074 10.2607 21.2871C10.637 20.9669 10.8254 20.4641 10.8254 19.7786V17.5959C10.8253 16.9106 10.637 16.4077 10.2607 16.0874ZM9.51064 19.7787C9.51064 20.3405 9.25782 20.6215 8.75218 20.6215H8.00214V16.7533H8.75218C9.25782 16.7533 9.51064 17.0343 9.51064 17.596V19.7787Z" fill="#005EB8" />
<path d="M15.1654 16.0874C14.7889 15.7672 14.286 15.6071 13.6568 15.6071C13.0332 15.6071 12.5331 15.7672 12.1568 16.0874C11.7803 16.4077 11.5921 16.9106 11.5921 17.5959V19.8292C11.5921 20.5147 11.7802 21.0175 12.1568 21.3377C12.5331 21.658 13.0332 21.8181 13.6568 21.8181C14.286 21.8181 14.7889 21.658 15.1654 21.3377C15.5417 21.0175 15.73 20.5147 15.73 19.8292V17.5959C15.73 16.9106 15.5417 16.4077 15.1654 16.0874ZM14.4154 19.8293C14.4154 20.3911 14.1625 20.6721 13.6569 20.6721C13.1568 20.6721 12.9068 20.3912 12.9068 19.8293V17.596C12.9068 17.0342 13.1568 16.7532 13.6569 16.7532C14.1625 16.7532 14.4154 17.0342 14.4154 17.596V19.8293Z" fill="#005EB8" />
<path d="M19.9774 19.4331C19.5672 19.4331 19.3509 19.5652 19.3285 19.8292C19.3172 19.9472 19.3045 20.0399 19.2906 20.1073C19.2765 20.1747 19.247 20.2604 19.2021 20.3643C19.1571 20.4684 19.0826 20.5455 18.9788 20.5961C18.8748 20.6467 18.7441 20.672 18.5869 20.672C18.0756 20.672 17.82 20.3911 17.82 19.8292V17.5959C17.8199 17.0342 18.0728 16.7532 18.5785 16.7532C19.0616 16.7532 19.3117 17.006 19.3285 17.5117C19.3454 17.7759 19.5644 17.9078 19.9858 17.9078C20.2218 17.9078 20.3903 17.8643 20.4914 17.7772C20.5926 17.6901 20.6431 17.5258 20.6431 17.2842C20.6431 16.7617 20.4451 16.3516 20.049 16.0538C19.6529 15.756 19.1457 15.6071 18.5278 15.6071C17.9265 15.6071 17.4392 15.7672 17.0656 16.0875C16.6919 16.4077 16.5052 16.9107 16.5052 17.596V19.8293C16.5052 20.5148 16.6919 21.0175 17.0656 21.3378C17.4392 21.658 17.9265 21.8182 18.5278 21.8182C19.1457 21.8182 19.6529 21.661 20.049 21.3462C20.445 21.0316 20.6431 20.6019 20.6431 20.0568C20.6431 19.8153 20.5925 19.6509 20.4914 19.5638C20.3903 19.4767 20.2189 19.4331 19.9774 19.4331Z" fill="#005EB8" />
</symbol><symbol viewBox="0 0 29 28" fill="none" id="PDF">
<path d="M25.3321 13.1526H25.2255V6.68046C25.2255 5.85549 24.9043 5.07996 24.321 4.49666L20.7289 0.904593C20.1456 0.321237 19.37 0 18.5451 0H7.53371C5.83072 0 4.44531 1.38541 4.44531 3.08839V13.1526H4.33867C3.19613 13.1526 2.2666 14.0821 2.2666 15.2247V22.1077C2.2666 23.2502 3.19613 24.1798 4.33867 24.1798H4.44526V24.9117C4.44526 26.6146 5.83067 28 7.53365 28H22.1372C23.8401 28 25.2255 26.6146 25.2255 24.9117V24.1798H25.3321C26.4747 24.1798 27.4042 23.2502 27.4042 22.1077V15.2248C27.4042 14.0822 26.4747 13.1526 25.3321 13.1526ZM20.2501 2.74544L22.6441 5.13952H20.4335C20.3323 5.13952 20.2501 5.05721 20.2501 4.95615V2.74544ZM6.08551 3.08839C6.08551 2.28984 6.7351 1.64026 7.53365 1.64026H18.5451C18.5667 1.64026 18.5883 1.64091 18.6098 1.64184V4.95609C18.6098 5.9617 19.4279 6.77972 20.4335 6.77972H23.5853V13.1526H6.08551V3.08839ZM23.5853 24.9118C23.5853 25.7103 22.9357 26.3599 22.1372 26.3599H7.53365C6.73515 26.3599 6.08551 25.7103 6.08551 24.9118V24.1799H23.5852V24.9118H23.5853ZM25.764 22.1078C25.764 22.3459 25.5703 22.5396 25.3321 22.5396H24.406C24.4058 22.5396 24.4056 22.5396 24.4054 22.5396C24.4052 22.5396 24.4051 22.5396 24.4049 22.5396H5.26541H5.26487H4.33867H4.33862C4.10051 22.5396 3.9068 22.3459 3.9068 22.1078V15.2248C3.9068 14.9867 4.10051 14.793 4.33862 14.793H25.3321C25.5702 14.793 25.764 14.9867 25.764 15.2248V22.1078H25.764Z" fill="#005EB8" />
<path d="M11.9442 16.0747C11.5819 15.7628 11.1 15.6069 10.4989 15.6069H8.75443C8.6083 15.6069 8.49028 15.6463 8.40043 15.7249C8.31047 15.8037 8.26562 15.8964 8.26562 16.003V21.3629C8.26562 21.4922 8.33016 21.5919 8.45944 21.6621C8.58856 21.7325 8.74311 21.7675 8.92297 21.7675C9.10268 21.7675 9.25717 21.7325 9.38645 21.6621C9.51563 21.5919 9.58027 21.4923 9.58027 21.3629V19.5427H10.4146C11.0382 19.5427 11.5396 19.384 11.9189 19.0665C12.2981 18.7492 12.4878 18.2562 12.4878 17.5875V17.5453C12.4878 16.8768 12.3066 16.3865 11.9442 16.0747ZM11.1731 17.6886C11.1731 18.2505 10.9202 18.5313 10.4146 18.5313H9.58032V16.7531H10.4146C10.9203 16.7531 11.1732 17.0342 11.1732 17.5959V17.6886H11.1731Z" fill="#005EB8" />
<path d="M16.6348 16.0873C16.2583 15.7671 15.7555 15.6069 15.1263 15.6069H13.6346C13.4661 15.6069 13.3283 15.6463 13.2216 15.7249C13.1148 15.8036 13.0615 15.8963 13.0615 16.003V21.3713C13.0615 21.4782 13.1149 21.5708 13.2216 21.6495C13.3283 21.7282 13.4661 21.7674 13.6346 21.7674H15.1263C15.7554 21.7674 16.2583 21.6073 16.6348 21.287C17.0111 20.9668 17.1994 20.464 17.1994 19.7785V17.5958C17.1993 16.9105 17.011 16.4076 16.6348 16.0873ZM15.8847 19.7786C15.8847 20.3404 15.6319 20.6214 15.1262 20.6214H14.3762V16.7531H15.1262C15.6319 16.7531 15.8847 17.0342 15.8847 17.5959V19.7786Z" fill="#005EB8" />
<path d="M21.8255 15.7754C21.7581 15.6631 21.6597 15.6069 21.5305 15.6069H18.6062C18.4489 15.6069 18.314 15.6421 18.2018 15.7123C18.0893 15.7826 18.0332 15.8823 18.0332 16.0115V21.3629C18.0332 21.4922 18.0977 21.5919 18.227 21.6621C18.3561 21.7325 18.5107 21.7675 18.6906 21.7675C18.8703 21.7675 19.0247 21.7325 19.154 21.6621C19.2832 21.5919 19.3478 21.4923 19.3478 21.3629V19.1886H20.6204C20.7496 19.1886 20.8479 19.138 20.9154 19.037C20.9828 18.9358 21.0165 18.8207 21.0165 18.6914C21.0165 18.5511 20.9814 18.4301 20.9112 18.329C20.8408 18.2278 20.7439 18.1773 20.6204 18.1773H19.3478V16.7531H21.5305C21.654 16.7531 21.7509 16.697 21.8213 16.5845C21.8915 16.4722 21.9267 16.3346 21.9267 16.1716C21.9267 16.0199 21.8929 15.8879 21.8255 15.7754Z" fill="#005EB8" />
</symbol><symbol viewBox="0 0 28 28" fill="none" id="PPT">
<path d="M24.0654 13.1526H23.9588V6.68043C23.9588 5.85552 23.6376 5.08005 23.0543 4.49664L19.4622 0.904535C18.8788 0.321236 18.1033 0 17.2784 0H6.26703C4.56411 0 3.17865 1.3854 3.17865 3.08838V13.1526H3.07206C1.92953 13.1526 1 14.0821 1 15.2246V22.1076C1 23.2502 1.92953 24.1797 3.07206 24.1797H3.17865V24.9116C3.17865 26.6145 4.56405 27.9999 6.26703 27.9999H20.8705C22.5734 27.9999 23.9588 26.6145 23.9588 24.9116V24.1797H24.0654C25.208 24.1797 26.1375 23.2502 26.1375 22.1076V15.2247C26.1375 14.0821 25.208 13.1526 24.0654 13.1526ZM18.9834 2.74538L21.3775 5.1395H19.1668C19.0656 5.1395 18.9834 5.05719 18.9834 4.95613V2.74538ZM4.8189 3.08838C4.8189 2.28983 5.46848 1.64025 6.26703 1.64025H17.2784C17.3001 1.64025 17.3216 1.6409 17.3431 1.64183V4.95607C17.3431 5.96167 18.1613 6.77969 19.1668 6.77969H22.3186V13.1526H4.8189V3.08838ZM20.8705 26.3598H6.26703C5.46853 26.3598 4.8189 25.7102 4.8189 24.9117V24.1798H22.3185V24.9117H22.3186C22.3186 25.7102 21.669 26.3598 20.8705 26.3598ZM24.4972 22.1077C24.4972 22.3458 24.3035 22.5395 24.0654 22.5395H23.1392C23.1391 22.5395 23.1389 22.5395 23.1387 22.5395C23.1385 22.5395 23.1384 22.5395 23.1381 22.5395H3.99929C3.99913 22.5395 3.99896 22.5395 3.99875 22.5395C3.99853 22.5395 3.99842 22.5395 3.9982 22.5395H3.07201C2.8339 22.5395 2.64019 22.3458 2.64019 22.1077V15.2247C2.64019 14.9866 2.8339 14.7929 3.07201 14.7929H24.0654C24.3035 14.7929 24.4972 14.9866 24.4972 15.2247V22.1077Z" fill="#005EB8" />
<path d="M13.2348 21.569C13.5423 21.569 13.7917 21.3196 13.7917 21.0121V19.3414H14.5714C15.4926 19.3414 16.2421 18.5919 16.2421 17.6707C16.2421 16.7495 15.4926 16 14.5714 16H13.2348C12.9273 16 12.6779 16.2493 12.6779 16.5569V17.8883V18.7845V21.0121C12.6779 21.3196 12.9272 21.569 13.2348 21.569ZM13.7917 17.1138H14.5714C14.8784 17.1138 15.1283 17.3636 15.1283 17.6707C15.1283 17.9778 14.8784 18.2276 14.5714 18.2276H13.7917V17.8883V17.1138Z" fill="#005EB8" />
<path d="M8 16.5569V17.8883V18.7845V21.0121C8 21.3196 8.24938 21.569 8.5569 21.569C8.86441 21.569 9.11379 21.3196 9.11379 21.0121V19.3414H9.89345C10.8147 19.3414 11.5641 18.5919 11.5641 17.6707C11.5641 16.7495 10.8147 16 9.89345 16H8.5569C8.24932 16 8 16.2493 8 16.5569ZM9.11379 17.1138H9.89345C10.2005 17.1138 10.4503 17.3636 10.4503 17.6707C10.4503 17.9778 10.2005 18.2276 9.89345 18.2276H9.11379V17.8883V17.1138Z" fill="#005EB8" />
<path d="M17.9128 17.1138H18.5811V21.0121C18.5811 21.3196 18.8304 21.569 19.138 21.569C19.4455 21.569 19.6949 21.3196 19.6949 21.0121V17.1138H20.3631C20.6707 17.1138 20.92 16.8645 20.92 16.5569C20.92 16.2493 20.6707 16 20.3631 16H17.9128C17.6053 16 17.3559 16.2493 17.3559 16.5569C17.3559 16.8645 17.6052 17.1138 17.9128 17.1138Z" fill="#005EB8" />
</symbol><symbol viewBox="0 0 28 28" fill="none" id="XLS">
<path d="M24.0655 13.1526H23.9589V6.68046C23.9589 5.85549 23.6377 5.07996 23.0544 4.49666L19.4623 0.904593C18.879 0.321237 18.1034 0 17.2785 0H6.2671C4.56412 0 3.17871 1.38541 3.17871 3.08839V13.1526H3.07207C1.92953 13.1526 1 14.0821 1 15.2247V22.1077C1 23.2502 1.92953 24.1798 3.07207 24.1798H3.17866V24.9117C3.17866 26.6146 4.56407 28 6.26705 28H20.8706C22.5735 28 23.9589 26.6146 23.9589 24.9117V24.1798H24.0655C25.2081 24.1798 26.1376 23.2502 26.1376 22.1077V15.2248C26.1376 14.0822 25.2081 13.1526 24.0655 13.1526ZM18.9835 2.74544L21.3775 5.13952H19.1669C19.0657 5.13952 18.9835 5.05721 18.9835 4.95615V2.74544ZM4.81891 3.08839C4.81891 2.28984 5.4685 1.64026 6.26705 1.64026H17.2785C17.3001 1.64026 17.3217 1.64091 17.3432 1.64184V4.95609C17.3432 5.9617 18.1613 6.77972 19.1669 6.77972H22.3187V13.1526H4.81891V3.08839ZM22.3187 24.9118C22.3187 25.7103 21.6691 26.3599 20.8706 26.3599H6.26705C5.46855 26.3599 4.81891 25.7103 4.81891 24.9118V24.1799H22.3186V24.9118H22.3187ZM24.4974 22.1078C24.4974 22.3459 24.3037 22.5396 24.0655 22.5396H23.1394C23.1392 22.5396 23.139 22.5396 23.1388 22.5396C23.1386 22.5396 23.1385 22.5396 23.1383 22.5396H3.99881H3.99827H3.07207H3.07202C2.83391 22.5396 2.6402 22.3459 2.6402 22.1078V15.2248C2.6402 14.9867 2.83391 14.793 3.07202 14.793H24.0655C24.3036 14.793 24.4974 14.9867 24.4974 15.2248V22.1078H24.4974Z" fill="#005EB8" />
<path d="M9.78057 18.6139C9.77186 18.5895 9.76217 18.5657 9.75195 18.5422C9.76186 18.5195 9.77132 18.4965 9.77982 18.4728L10.6674 16.5812C10.8156 16.2652 10.6811 15.8883 10.3668 15.7392C10.0526 15.5902 9.67772 15.7254 9.52947 16.0414L8.80663 17.5821L8.08882 16.0428C7.94133 15.7265 7.56674 15.5903 7.25214 15.7386C6.9376 15.8869 6.80213 16.2636 6.94965 16.5799L7.82941 18.4664C7.8385 18.4923 7.84854 18.5175 7.85933 18.5422C7.84822 18.5677 7.838 18.5937 7.82869 18.6203L6.94814 20.5372C6.80247 20.8544 6.94005 21.2303 7.25547 21.3767C7.3409 21.4164 7.43058 21.4352 7.51887 21.4352C7.7566 21.4352 7.98414 21.299 8.09039 21.0677L8.80666 19.5083L9.52803 21.0691C9.67445 21.3859 10.0487 21.5233 10.3636 21.3761C10.6787 21.2289 10.8154 20.8527 10.669 20.5359L9.78057 18.6139Z" fill="#005EB8" />
<path d="M15.0308 20.17H13.6961C13.3237 20.17 13.0206 19.8553 13.0206 19.4685V16.3112C13.0206 15.9618 12.7478 15.6786 12.4114 15.6786C12.075 15.6786 11.8022 15.9618 11.8022 16.3112V19.4685C11.8022 20.5529 12.6518 21.4352 13.6961 21.4352H15.0308C15.3673 21.4352 15.64 21.152 15.64 20.8026C15.64 20.4532 15.3673 20.17 15.0308 20.17Z" fill="#005EB8" />
<path d="M18.0197 17.9412C17.597 17.9412 17.2781 17.7289 17.2781 17.4473C17.2781 17.1749 17.4962 16.9533 17.7642 16.9533C17.9842 16.9533 18.3483 16.982 18.9662 17.2303C19.278 17.3556 19.6271 17.1904 19.7458 16.8614C19.8646 16.5325 19.708 16.1643 19.3962 16.039C18.7841 15.7931 18.2656 15.6786 17.7642 15.6786C16.8299 15.6786 16.0699 16.472 16.0699 17.4473C16.0699 18.4556 16.9081 19.216 18.0197 19.216C18.3713 19.216 18.6684 19.4422 18.6684 19.7099C18.6684 19.973 18.425 20.2039 18.1475 20.2039C17.9084 20.2039 17.3626 20.1459 16.8334 19.9286C16.5226 19.8009 16.1723 19.9634 16.0513 20.2914C15.9303 20.6194 16.0842 20.9888 16.3952 21.1165C17.046 21.3837 17.7459 21.4786 18.1475 21.4786C18.5967 21.4786 19.0242 21.2992 19.3514 20.9734C19.6901 20.6363 19.8766 20.1875 19.8766 19.7099C19.8766 18.7346 19.0437 17.9412 18.0197 17.9412V17.9412Z" fill="#005EB8" />
</symbol><symbol viewBox="0 0 24 24" role="presentation" id="anchor"><g fill="currentColor" fill-rule="evenodd"><path d="M12.856 5.457l-.937.92a1.002 1.002 0 000 1.437 1.047 1.047 0 001.463 0l.984-.966c.967-.95 2.542-1.135 3.602-.288a2.54 2.54 0 01.203 3.81l-2.903 2.852a2.646 2.646 0 01-3.696 0l-1.11-1.09L9 13.57l1.108 1.089c1.822 1.788 4.802 1.788 6.622 0l2.905-2.852a4.558 4.558 0 00-.357-6.82c-1.893-1.517-4.695-1.226-6.422.47" /><path d="M11.144 19.543l.937-.92a1.002 1.002 0 000-1.437 1.047 1.047 0 00-1.462 0l-.985.966c-.967.95-2.542 1.135-3.602.288a2.54 2.54 0 01-.203-3.81l2.903-2.852a2.646 2.646 0 013.696 0l1.11 1.09L15 11.43l-1.108-1.089c-1.822-1.788-4.802-1.788-6.622 0l-2.905 2.852a4.558 4.558 0 00.357 6.82c1.893 1.517 4.695 1.226 6.422-.47" /></g></symbol><symbol viewBox="0 0 35 42" fill="none" id="arrow--blue">
<path d="M23.015 22.4638C22.9148 22.4797 22.8134 22.487 22.7119 22.4857H5.43701L5.81369 22.6569C6.18189 22.8272 6.51685 23.059 6.80358 23.3418L11.6479 28.076C12.2859 28.6712 12.3931 29.6287 11.9019 30.3447C11.3303 31.1076 10.234 31.2733 9.45329 30.7146C9.39021 30.6695 9.33026 30.6202 9.27392 30.5673L0.513847 22.0063C-0.170753 21.338 -0.171355 20.2539 0.512478 19.5849C0.512916 19.5844 0.513409 19.584 0.513847 19.5835L9.27392 11.0225C9.95907 10.3548 11.0684 10.3563 11.7517 11.0259C11.8054 11.0786 11.8556 11.1347 11.9019 11.1938C12.3931 11.9097 12.2859 12.8672 11.6479 13.4624L6.81234 18.2052C6.55529 18.4567 6.25975 18.6676 5.93634 18.8302L5.41073 19.0613H22.6155C23.5105 19.0288 24.2958 19.6398 24.4639 20.4995C24.6188 21.433 23.9701 22.3123 23.015 22.4638Z" fill="#005EB8" />
</symbol><symbol viewBox="0 0 25 21" fill="none" id="arrow-right">
<path d="M1.46888 12.2187C1.56907 12.235 1.67047 12.2425 1.77192 12.2412H19.0468L18.6702 12.4164C18.302 12.5906 17.967 12.8278 17.6803 13.1172L12.836 17.9615C12.1979 18.5705 12.0907 19.5503 12.5819 20.2829C13.1536 21.0636 14.2498 21.2331 15.0306 20.6615C15.0936 20.6152 15.1536 20.5649 15.2099 20.5107L23.97 11.7506C24.6546 11.0668 24.6552 9.95746 23.9714 9.27286C23.9709 9.27243 23.9704 9.27193 23.97 9.27149L15.2099 0.511419C14.5248 -0.171812 13.4155 -0.17028 12.7322 0.514868C12.6784 0.568796 12.6282 0.626175 12.5819 0.686619C12.0907 1.41924 12.1979 2.39899 12.836 3.00804L17.6715 7.86112C17.9286 8.11845 18.2241 8.33422 18.5475 8.50061L19.0731 8.73713H1.86833C0.973328 8.7039 0.188097 9.32909 0.0199566 10.2088C-0.134932 11.1639 0.513754 12.0638 1.46888 12.2187Z" fill="currentColor" />
</symbol><symbol viewBox="0 0 53 53" fill="none" id="avatar">
<path d="M26.5 52.5999C40.8594 52.5999 52.5 40.9594 52.5 26.6C52.5 12.2406 40.8594 0.599976 26.5 0.599976C12.1406 0.599976 0.5 12.2406 0.5 26.6C0.5 40.9594 12.1406 52.5999 26.5 52.5999Z" fill="#E8EDEE" />
<path d="M47.3644 42.0949C44.9396 38.8484 41.7909 36.2123 38.1687 34.3961C34.5465 32.5798 30.5506 31.6334 26.4985 31.6321C22.4464 31.6309 18.4499 32.5747 14.8265 34.3887C11.2032 36.2027 8.05287 38.8369 5.62598 42.0818C8.04053 45.3432 11.1857 47.9934 14.8093 49.82C18.4328 51.6465 22.434 52.5986 26.4919 52.5999C30.5498 52.6012 34.5516 51.6516 38.1763 49.8273C41.801 48.003 44.9478 45.3547 47.3644 42.0949Z" fill="#4C6272" />
<path d="M26.5001 28.2773C32.0585 28.2773 36.5646 23.7712 36.5646 18.2128C36.5646 12.6543 32.0585 8.14825 26.5001 8.14825C20.9416 8.14825 16.4355 12.6543 16.4355 18.2128C16.4355 23.7712 20.9416 28.2773 26.5001 28.2773Z" fill="#4C6272" />
</symbol><symbol viewBox="0 0 39 36" fill="none" id="blockquote">
<path opacity="0.4" d="M0 20.3684C0 17.4211 0.105264 14.9474 0.31579 12.9474C0.63158 10.9474 1.1579 9.21053 1.89474 7.73684C2.63158 6.1579 3.63158 4.78948 4.89474 3.63158C6.26316 2.47369 7.94737 1.26316 9.94737 0L14.2105 5.21052C12.6316 5.94737 11.3158 6.68421 10.2632 7.42106C9.31579 8.1579 8.52632 9.10526 7.89474 10.2632C7.36842 11.3158 7 12.6842 6.78947 14.3684C6.68421 15.9474 6.63158 17.9474 6.63158 20.3684H15.7895V36H0V20.3684ZM22.7368 20.3684C22.7368 17.4211 22.8421 14.9474 23.0526 12.9474C23.3684 10.9474 23.8947 9.21053 24.6316 7.73684C25.3684 6.1579 26.3684 4.78948 27.6316 3.63158C29 2.47369 30.6842 1.26316 32.6842 0L36.9474 5.21052C35.3684 5.94737 34.0526 6.68421 33 7.42106C32.0526 8.1579 31.2632 9.10526 30.6316 10.2632C30.1053 11.3158 29.7368 12.6842 29.5263 14.3684C29.421 15.9474 29.3684 17.9474 29.3684 20.3684H38.5263V36H22.7368V20.3684Z" fill="#005EB8" />
</symbol><symbol viewBox="0 0 28 28" fill="none" id="calendar">
<path d="M22.5941 2.15006H21.5497V1.09326C21.5497 0.489454 21.0602 0 20.4564 0C19.8526 0 19.3632 0.489454 19.3632 1.09326V2.15006H8.63678V1.09326C8.63678 0.489454 8.14732 0 7.54352 0C6.93971 0 6.45025 0.489454 6.45025 1.09326V2.15006H5.40591C2.42508 2.15006 0 4.57514 0 7.55592V22.5816C0 25.5624 2.42508 27.9875 5.40591 27.9875H22.5941C25.5749 27.9875 28 25.5624 28 22.5816V7.55592C28 4.57514 25.5749 2.15006 22.5941 2.15006ZM5.40591 4.33659H6.45025V6.46845C6.45025 7.07226 6.93971 7.56172 7.54352 7.56172C8.14732 7.56172 8.63678 7.07226 8.63678 6.46845V4.33659H19.3632V6.46845C19.3632 7.07226 19.8527 7.56172 20.4565 7.56172C21.0603 7.56172 21.5497 7.07226 21.5497 6.46845V4.33659H22.5941C24.3693 4.33659 25.8135 5.78079 25.8135 7.55592V8.60031H2.18653V7.55592C2.18653 5.78079 3.63073 4.33659 5.40591 4.33659ZM22.5941 25.801H5.40591C3.63073 25.801 2.18653 24.3568 2.18653 22.5816V10.7868H25.8135V22.5816C25.8135 24.3568 24.3693 25.801 22.5941 25.801ZM9.71184 15.087C9.71184 15.6908 9.22239 16.1803 8.61858 16.1803H6.46851C5.8647 16.1803 5.37525 15.6908 5.37525 15.087C5.37525 14.4832 5.8647 13.9938 6.46851 13.9938H8.61858C9.22233 13.9938 9.71184 14.4832 9.71184 15.087ZM22.6248 15.087C22.6248 15.6908 22.1354 16.1803 21.5315 16.1803H19.3815C18.7777 16.1803 18.2882 15.6908 18.2882 15.087C18.2882 14.4832 18.7777 13.9938 19.3815 13.9938H21.5315C22.1353 13.9938 22.6248 14.4832 22.6248 15.087ZM16.1621 15.087C16.1621 15.6908 15.6726 16.1803 15.0688 16.1803H12.9188C12.315 16.1803 11.8255 15.6908 11.8255 15.087C11.8255 14.4832 12.315 13.9938 12.9188 13.9938H15.0688C15.6726 13.9938 16.1621 14.4832 16.1621 15.087ZM9.71184 21.5373C9.71184 22.1411 9.22239 22.6305 8.61858 22.6305H6.46851C5.8647 22.6305 5.37525 22.1411 5.37525 21.5373C5.37525 20.9335 5.8647 20.444 6.46851 20.444H8.61858C9.22233 20.444 9.71184 20.9335 9.71184 21.5373ZM22.6248 21.5373C22.6248 22.1411 22.1354 22.6305 21.5315 22.6305H19.3815C18.7777 22.6305 18.2882 22.1411 18.2882 21.5373C18.2882 20.9335 18.7777 20.444 19.3815 20.444H21.5315C22.1353 20.444 22.6248 20.9335 22.6248 21.5373ZM16.1621 21.5373C16.1621 22.1411 15.6726 22.6305 15.0688 22.6305H12.9188C12.315 22.6305 11.8255 22.1411 11.8255 21.5373C11.8255 20.9335 12.315 20.444 12.9188 20.444H15.0688C15.6726 20.444 16.1621 20.9335 16.1621 21.5373Z" fill="currentColor" />
</symbol><symbol viewBox="0 0 8 12" id="chevron">
    <path fill="currentColor" fill-rule="evenodd" d="M.424 1.063l.639-.639c.234-.234.614-.234.848 0l5.152 5.152c.234.234.234.614 0 .848L1.91 11.576c-.234.234-.614.234-.848 0l-.639-.639c-.234-.234-.234-.614 0-.848L4.512 6 .424 1.911c-.234-.234-.234-.614 0-.848z" />
</symbol><symbol viewBox="0 0 13 8" fill="none" id="chevron-down">
<path d="M6.00421 7.30099C5.73841 7.30253 5.48293 7.19818 5.29421 7.01099L0.294209 2.01099C0.0405511 1.75733 -0.0585146 1.38762 0.0343313 1.04111C0.127177 0.694607 0.397827 0.423956 0.744331 0.331111C1.09084 0.238266 1.46055 0.33733 1.71421 0.590989L6.00421 4.89099L10.2942 0.590989C10.6863 0.198867 11.3221 0.198867 11.7142 0.590989C12.1063 0.983112 12.1063 1.61887 11.7142 2.01099L6.71421 7.01099C6.52549 7.19818 6.27001 7.30253 6.00421 7.30099Z" fill="#005EB8" />
</symbol><symbol viewBox="0 0 20 20" fill="none" id="chevron-grey">
<path d="M13.5002 9C13.5017 9.26581 13.3974 9.52128 13.2102 9.71L8.21021 14.71C7.95655 14.9637 7.58683 15.0627 7.24033 14.9699C6.89382 14.877 6.62317 14.6064 6.53033 14.2599C6.43748 13.9134 6.53655 13.5437 6.79021 13.29L11.0902 9L6.79021 4.71C6.39809 4.31788 6.39809 3.68212 6.79021 3.29C7.18233 2.89788 7.81809 2.89788 8.21021 3.29L13.2102 8.29C13.3974 8.47872 13.5017 8.7342 13.5002 9Z" fill="#9EA7AF" />
</symbol><symbol viewBox="0 0 20 20" fill="none" id="chevron-grey--left">
<path d="M13.5002 9C13.5017 9.26581 13.3974 9.52128 13.2102 9.71L8.21021 14.71C7.95655 14.9637 7.58683 15.0627 7.24033 14.9699C6.89382 14.877 6.62317 14.6064 6.53033 14.2599C6.43748 13.9134 6.53655 13.5437 6.79021 13.29L11.0902 9L6.79021 4.71C6.39809 4.31788 6.39809 3.68212 6.79021 3.29C7.18233 2.89788 7.81809 2.89788 8.21021 3.29L13.2102 8.29C13.3974 8.47872 13.5017 8.7342 13.5002 9Z" transform="rotate(180, 10, 9)" fill="#9EA7AF" />
</symbol><symbol viewBox="0 0 16 16" fill="none" id="clear">
<path d="M9.41 8L14.71 2.71C15.1021 2.31788 15.1021 1.68212 14.71 1.29C14.3179 0.897876 13.6821 0.897876 13.29 1.29L8 6.59L2.71 1.29C2.31788 0.897876 1.68212 0.897876 1.29 1.29C0.897878 1.68212 0.897878 2.31788 1.29 2.71L6.59 8L1.29 13.29C1.10069 13.4778 0.994202 13.7334 0.994202 14C0.994202 14.2666 1.10069 14.5222 1.29 14.71C1.47777 14.8993 1.73336 15.0058 2 15.0058C2.26664 15.0058 2.52223 14.8993 2.71 14.71L8 9.41L13.29 14.71C13.4778 14.8993 13.7334 15.0058 14 15.0058C14.2666 15.0058 14.5222 14.8993 14.71 14.71C14.8993 14.5222 15.0058 14.2666 15.0058 14C15.0058 13.7334 14.8993 13.4778 14.71 13.29L9.41 8Z" fill="#005EB8" />
</symbol><symbol viewBox="0 0 16 16" fill="none" id="close">
<path d="M9.41 8L14.71 2.71C15.1021 2.31788 15.1021 1.68212 14.71 1.29C14.3179 0.897876 13.6821 0.897876 13.29 1.29L8 6.59L2.71 1.29C2.31788 0.897876 1.68212 0.897876 1.29 1.29C0.897878 1.68212 0.897878 2.31788 1.29 2.71L6.59 8L1.29 13.29C1.10069 13.4778 0.994202 13.7334 0.994202 14C0.994202 14.2666 1.10069 14.5222 1.29 14.71C1.47777 14.8993 1.73336 15.0058 2 15.0058C2.26664 15.0058 2.52223 14.8993 2.71 14.71L8 9.41L13.29 14.71C13.4778 14.8993 13.7334 15.0058 14 15.0058C14.2666 15.0058 14.5222 14.8993 14.71 14.71C14.8993 14.5222 15.0058 14.2666 15.0058 14C15.0058 13.7334 14.8993 13.4778 14.71 13.29L9.41 8Z" fill="currentColor" />
</symbol><symbol viewBox="0 0 22 22" fill="none" id="close-icon">
<path d="M13.1159 11L21.0659 3.06503C21.6541 2.47685 21.6541 1.52322 21.0659 0.935034C20.4777 0.346851 19.5241 0.346851 18.9359 0.935034L11.0009 8.88503L3.06589 0.935034C2.4777 0.346851 1.52407 0.346851 0.935885 0.935034C0.347702 1.52322 0.347702 2.47685 0.935885 3.06503L8.88589 11L0.935885 18.935C0.651916 19.2167 0.492188 19.6001 0.492188 20C0.492188 20.4 0.651916 20.7834 0.935885 21.065C1.21753 21.349 1.60093 21.5087 2.00089 21.5087C2.40084 21.5087 2.78424 21.349 3.06589 21.065L11.0009 13.115L18.9359 21.065C19.2175 21.349 19.6009 21.5087 20.0009 21.5087C20.4008 21.5087 20.7842 21.349 21.0659 21.065C21.3499 20.7834 21.5096 20.4 21.5096 20C21.5096 19.6001 21.3499 19.2167 21.0659 18.935L13.1159 11Z" fill="#005EB8" />
</symbol><symbol viewBox="0 0 28 28" fill="none" id="email">
<g clip-path="url(#email_clip0_4547_8457)">
<path d="M18.5605 14.1436L28 20.1111V7.92407L18.5605 14.1436Z" fill="#005EB8" />
<path d="M0 7.92407V20.1111L9.4395 14.1436L0 7.92407Z" fill="#005EB8" />
<path d="M26.2502 4.375H1.75023C0.876984 4.375 0.183984 5.026 0.0527344 5.86425L14.0002 15.0535L27.9477 5.86425C27.8165 5.026 27.1235 4.375 26.2502 4.375Z" fill="#005EB8" />
<path d="M16.9581 15.2005L14.4819 16.8315C14.3349 16.9277 14.1686 16.975 14.0006 16.975C13.8326 16.975 13.6664 16.9277 13.5194 16.8315L11.0431 15.1987L0.0566406 22.148C0.191391 22.9792 0.880891 23.625 1.75064 23.625H26.2506C27.1204 23.625 27.8099 22.9792 27.9446 22.148L16.9581 15.2005Z" fill="#005EB8" />
</g>
<defs>

</defs>
</symbol><clipPath id="email_clip0_4547_8457">
<rect width="28" height="28" fill="white" />
</clipPath><symbol viewBox="0 0 24 24" fill="none" id="external-link">
<g clip-path="url(#external-link_clip0_1056:539)">
<path d="M18.4286 13.714H17.5714C17.4462 13.714 17.3435 13.7541 17.2635 13.8347C17.183 13.9148 17.1429 14.0175 17.1429 14.1426V18.4283C17.1429 19.0176 16.9332 19.5219 16.5136 19.9416C16.094 20.3612 15.5894 20.5709 15.0001 20.5709H3.85707C3.26779 20.5709 2.76328 20.3612 2.34359 19.9416C1.92398 19.522 1.71421 19.0176 1.71421 18.4283V7.2854C1.71421 6.69613 1.92394 6.19181 2.34359 5.77216C2.76328 5.35246 3.26779 5.14273 3.85707 5.14273H13.2855C13.4107 5.14273 13.5135 5.10244 13.5937 5.02217C13.674 4.94182 13.7141 4.83923 13.7141 4.71412V3.85686C13.7141 3.73198 13.674 3.62921 13.5937 3.54899C13.5135 3.46864 13.4107 3.42853 13.2855 3.42853H3.85707C2.79467 3.42853 1.88613 3.80577 1.13155 4.56021C0.377244 5.3146 0 6.22314 0 7.28554V18.4284C0 19.4908 0.377244 20.3995 1.13159 21.1536C1.88617 21.9081 2.79471 22.2855 3.85711 22.2855H15.0001C16.0624 22.2855 16.9711 21.9081 17.7256 21.1536C18.4801 20.3995 18.8573 19.4908 18.8573 18.4284V14.1429C18.8573 14.0177 18.8172 13.915 18.7366 13.8347C18.6562 13.7541 18.5535 13.714 18.4286 13.714Z" fill="currentColor" />
<path d="M23.7453 1.96879C23.5756 1.79912 23.3745 1.71436 23.1425 1.71436H16.2854C16.0533 1.71436 15.8523 1.79912 15.6828 1.96879C15.5131 2.13837 15.4281 2.33928 15.4281 2.57143C15.4281 2.80359 15.5131 3.00455 15.6828 3.17422L18.0398 5.53131L9.3078 14.2635C9.21839 14.3528 9.17383 14.4555 9.17383 14.5714C9.17383 14.6876 9.21853 14.7903 9.3078 14.8796L10.8346 16.4062C10.9239 16.4955 11.0266 16.54 11.1427 16.54C11.2587 16.54 11.3615 16.4955 11.4507 16.4062L20.1828 7.67417L22.54 10.0313C22.7095 10.2009 22.9105 10.2858 23.1426 10.2858C23.3748 10.2858 23.5758 10.2009 23.7455 10.0313C23.9151 9.86163 23.9999 9.66077 23.9999 9.42862V2.57143C23.9999 2.33914 23.9148 2.13837 23.7453 1.96879Z" fill="currentColor" />
</g>
<defs>

</defs>
</symbol><clipPath id="external-link_clip0_1056:539">
<rect width="24" height="24" fill="none" />
</clipPath><symbol viewBox="0 0 30 30" fill="none" id="facebook">
<path d="M24.874 0.0681152H4.40069C2.06202 0.0681152 0.158997 1.97032 0.158997 4.30799V24.7724C0.158997 27.1101 2.06202 29.0123 4.40069 29.0123H12.9406V18.7801H9.54729V13.6922H12.9406V10.2438C12.9406 7.43821 15.2239 5.15596 18.0307 5.15596H23.1773V10.2438H18.0307V13.6922H23.1773L22.3289 18.7801H18.0307V29.0123H24.874C27.2126 29.0123 29.1157 27.1101 29.1157 24.7724V4.30799C29.1157 1.97032 27.2126 0.0681152 24.874 0.0681152Z" fill="#005EB8" />
</symbol><symbol viewBox="0 0 24 19" fill="none" id="hamburger">
<path d="M22.5 18.522H1.50002C0.671556 18.522 7.62939e-06 17.8504 7.62939e-06 17.022C7.62939e-06 16.1936 0.671556 15.522 1.50002 15.522H22.5C23.3285 15.522 24.0001 16.1936 24.0001 17.022C24 17.8504 23.3285 18.522 22.5 18.522Z" fill="currentColor" />
<path d="M22.5 11.0217H1.50002C0.671556 11.0217 7.62939e-06 10.3502 7.62939e-06 9.52174C7.62939e-06 8.69333 0.671556 8.02173 1.50002 8.02173H22.5C23.3285 8.02173 24.0001 8.69328 24.0001 9.52174C24.0001 10.3502 23.3285 11.0217 22.5 11.0217Z" fill="currentColor" />
<path d="M22.5 3.52175H1.50002C0.671556 3.52175 7.62939e-06 2.8502 7.62939e-06 2.02174C7.62939e-06 1.19328 0.671556 0.521729 1.50002 0.521729H22.5C23.3285 0.521729 24.0001 1.19328 24.0001 2.02174C24.0001 2.8502 23.3285 3.52175 22.5 3.52175Z" fill="currentColor" />
</symbol><symbol viewBox="0 0 14 14" fill="none" id="icon-cross">
<path d="M12.15 13.75C11.75 13.75 11.35 13.65 11.05 13.35L1.04998 3.34999C0.449976 2.74999 0.449976 1.74999 1.04998 1.24999C1.64998 0.649988 2.54998 0.649988 3.14998 1.24999L13.15 11.25C13.75 11.85 13.75 12.75 13.15 13.35C12.85 13.65 12.55 13.75 12.15 13.75Z" fill="#DA291C" />
<path d="M2.14998 13.75C1.74998 13.75 1.34998 13.65 1.04998 13.35C0.449976 12.75 0.449976 11.85 1.04998 11.25L11.05 1.24999C11.65 0.649988 12.55 0.649988 13.15 1.24999C13.75 1.84999 13.75 2.74999 13.15 3.34999L3.14998 13.35C2.84998 13.65 2.54998 13.75 2.14998 13.75Z" fill="#DA291C" />
</symbol><symbol class="nhsuk-icon nhsuk-icon__plus" viewBox="0 0 24 24" aria-hidden="true" id="icon-plus"><circle cx="12" cy="12" r="10" fill="currentColor" /><path fill="none" stroke="#fff" stroke-linecap="round" stroke-miterlimit="10" stroke-width="2" d="M12 8v8M8 12h8" /></symbol><symbol viewBox="0 0 18 15" fill="none" id="icon-tick">
<path d="M15.4 2.80005L6.89998 11.2L2.59998 7.00005" stroke="#007F3B" stroke-width="4" stroke-linecap="round" />
</symbol><symbol viewBox="0 0 30 30" fill="none" id="instagram">
<path d="M21.9659 0.0681763H7.48864C3.50774 0.0681763 0.25 3.3245 0.25 7.30681V21.7841C0.25 25.765 3.50774 29.0227 7.48864 29.0227H21.9659C25.9468 29.0227 29.2045 25.765 29.2045 21.7841V7.30681C29.2045 3.3245 25.9468 0.0681763 21.9659 0.0681763ZM14.7273 20.5774C11.3953 20.5774 8.69496 17.8759 8.69496 14.5454C8.69496 11.2135 11.3953 8.51313 14.7273 8.51313C18.0578 8.51313 20.7596 11.2135 20.7596 14.5454C20.7596 17.8759 18.0578 20.5774 14.7273 20.5774ZM22.5692 8.51313C21.5688 8.51313 20.7596 7.70275 20.7596 6.70347C20.7596 5.7042 21.5688 4.89382 22.5692 4.89382C23.5696 4.89382 24.3789 5.7042 24.3789 6.70347C24.3789 7.70275 23.5696 8.51313 22.5692 8.51313Z" fill="#005EB8" />
</symbol><symbol viewBox="0 0 27 26" fill="none" id="linkedin">
<g clip-path="url(#linkedin_clip0_2477:4661)">
<path d="M26.1298 25.9545H26.1362V16.4722C26.1362 11.8336 25.1377 8.2573 19.715 8.2573C18.6968 8.21947 17.6875 8.45869 16.7946 8.94946C15.9017 9.44022 15.1587 10.1641 14.6449 11.044H14.5691V8.69357H9.42804V25.9537H14.7805V17.407C14.7805 15.157 15.2072 12.9805 17.9939 12.9805C20.7399 12.9805 20.7806 15.5486 20.7806 17.5513V25.9545H26.1298Z" fill="#005EB8" />
<path d="M0.713806 8.69531H6.07105V25.9554H0.713806V8.69531Z" fill="#005EB8" />
<path d="M3.38805 0.102328C2.76987 0.0994899 2.16479 0.2804 1.64961 0.622092C1.13444 0.963784 0.732412 1.45085 0.494568 2.02145C0.256724 2.59205 0.19379 3.22046 0.313755 3.82689C0.43372 4.43333 0.731174 4.99045 1.16836 5.42752C1.60554 5.86459 2.16273 6.1619 2.7692 6.28171C3.37566 6.40151 4.00405 6.33842 4.5746 6.10043C5.14514 5.86244 5.6321 5.46029 5.97366 4.94502C6.31522 4.42976 6.49597 3.82463 6.49297 3.20645C6.49255 2.38318 6.16527 1.59376 5.58305 1.01169C5.00083 0.429622 4.21133 0.102539 3.38805 0.102328Z" fill="#005EB8" />
</g>
<defs>

</defs>
</symbol><clipPath id="linkedin_clip0_2477:4661">
<rect width="25.8523" height="25.8523" fill="white" transform="translate(0.283936 0.102295)" />
</clipPath><symbol viewBox="0 0 34 16" fill="none" id="long-arrow">
<path d="M32.6538 7.08664C32.6534 7.08626 32.6531 7.08581 32.6527 7.08542L25.9105 0.375738C25.4054 -0.126907 24.5884 -0.125037 24.0856 0.380125C23.5829 0.885222 23.5849 1.70219 24.0899 2.2049L28.6167 6.70968H1.29032C0.577678 6.70968 0 7.28735 0 8C0 8.71265 0.577678 9.29032 1.29032 9.29032H28.6166L24.09 13.7951C23.5849 14.2978 23.583 15.1148 24.0857 15.6199C24.5885 16.1251 25.4055 16.1268 25.9105 15.6243L32.6527 8.91458C32.6531 8.91419 32.6534 8.91374 32.6539 8.91336C33.1592 8.40897 33.1576 7.58935 32.6538 7.08664Z" fill="#005EB8" />
</symbol><symbol viewBox="0 0 27 26" fill="none" id="magnifying-glass">
<path d="M26.4469 23.3275L20.1708 17.0908C21.7903 14.9352 22.5299 12.2484 22.2408 9.57143C21.9516 6.89444 20.6552 4.42595 18.6124 2.6629C16.5696 0.899839 13.9322 -0.026877 11.2311 0.069302C8.52996 0.165481 5.96571 1.27741 4.05451 3.18126C2.14331 5.08511 1.02708 7.6395 0.930534 10.3302C0.833984 13.021 1.76428 15.6482 3.53414 17.6831C5.30401 19.7181 7.78202 21.0095 10.4694 21.2976C13.1567 21.5856 15.8538 20.8489 18.0177 19.2356L24.2785 25.4875C24.4205 25.6301 24.5894 25.7433 24.7755 25.8205C24.9615 25.8977 25.1611 25.9375 25.3627 25.9375C25.5643 25.9375 25.7639 25.8977 25.95 25.8205C26.1361 25.7433 26.305 25.6301 26.4469 25.4875C26.59 25.3461 26.7036 25.1779 26.7812 24.9925C26.8587 24.8072 26.8986 24.6083 26.8986 24.4075C26.8986 24.2067 26.8587 24.0079 26.7812 23.8225C26.7036 23.6372 26.59 23.4689 26.4469 23.3275ZM3.98431 10.7171C3.98431 9.21283 4.4321 7.74233 5.27107 6.49157C6.11003 5.24081 7.30247 4.26595 8.69761 3.69029C10.0928 3.11463 11.6279 2.96401 13.109 3.25748C14.5901 3.55095 15.9505 4.27533 17.0183 5.33902C18.0861 6.4027 18.8133 7.75792 19.1079 9.2333C19.4025 10.7087 19.2513 12.2379 18.6734 13.6277C18.0955 15.0175 17.1169 16.2054 15.8613 17.0411C14.6057 17.8768 13.1295 18.3229 11.6195 18.3229C9.59449 18.3229 7.65246 17.5216 6.22059 16.0952C4.78873 14.6689 3.98431 12.7343 3.98431 10.7171Z" fill="white" />
</symbol><symbol viewBox="0 0 27 26" fill="none" id="magnifying-glass--grey">
<path d="M26.4469 23.3275L20.1708 17.0908C21.7903 14.9352 22.5299 12.2484 22.2408 9.57143C21.9516 6.89444 20.6552 4.42595 18.6124 2.6629C16.5696 0.899839 13.9322 -0.026877 11.2311 0.069302C8.52996 0.165481 5.96571 1.27741 4.05451 3.18126C2.14331 5.08511 1.02708 7.6395 0.930534 10.3302C0.833984 13.021 1.76428 15.6482 3.53414 17.6831C5.30401 19.7181 7.78202 21.0095 10.4694 21.2976C13.1567 21.5856 15.8538 20.8489 18.0177 19.2356L24.2785 25.4875C24.4205 25.6301 24.5894 25.7433 24.7755 25.8205C24.9615 25.8977 25.1611 25.9375 25.3627 25.9375C25.5643 25.9375 25.7639 25.8977 25.95 25.8205C26.1361 25.7433 26.305 25.6301 26.4469 25.4875C26.59 25.3461 26.7036 25.1779 26.7812 24.9925C26.8587 24.8072 26.8986 24.6083 26.8986 24.4075C26.8986 24.2067 26.8587 24.0079 26.7812 23.8225C26.7036 23.6372 26.59 23.4689 26.4469 23.3275ZM3.98431 10.7171C3.98431 9.21283 4.4321 7.74233 5.27107 6.49157C6.11003 5.24081 7.30247 4.26595 8.69761 3.69029C10.0928 3.11463 11.6279 2.96401 13.109 3.25748C14.5901 3.55095 15.9505 4.27533 17.0183 5.33902C18.0861 6.4027 18.8133 7.75792 19.1079 9.2333C19.4025 10.7087 19.2513 12.2379 18.6734 13.6277C18.0955 15.0175 17.1169 16.2054 15.8613 17.0411C14.6057 17.8768 13.1295 18.3229 11.6195 18.3229C9.59449 18.3229 7.65246 17.5216 6.22059 16.0952C4.78873 14.6689 3.98431 12.7343 3.98431 10.7171Z" fill="#9EA7AF" />
</symbol><symbol class="nhsuk-icon nhsuk-icon__minus" viewBox="0 0 24 24" aria-hidden="true" id="minus"><circle cx="12" cy="12" r="10" fill="currentColor" /><path fill="none" stroke="#fff" stroke-linecap="round" stroke-miterlimit="10" stroke-width="2" d="M8 12h8" /></symbol><symbol viewBox="0 0 20 20" fill="none" id="minus--blue">
<circle cx="10" cy="10" r="10" fill="#005EB8" />
<path d="M6 10.5H14" stroke="white" stroke-width="2.66667" stroke-linecap="round" />
</symbol><symbol viewBox="0 0 72 73" fill="none" id="pals">
<g clip-path="url(#pals_clip0_2632:2917)">
<path d="M72 49.2563C72 38.7617 64.9286 29.5925 54.9569 26.8294C54.3301 12.2214 42.2518 0.529785 27.4922 0.529785C12.3327 0.529785 0 12.8625 0 28.022C0 32.9625 1.31506 37.7729 3.81226 41.996L0.101074 55.4125L13.5181 51.7019C17.4001 53.9975 21.7793 55.2906 26.2991 55.4856C29.0616 65.4579 38.2313 72.5298 48.7266 72.5298C52.9156 72.5298 56.9894 71.4141 60.5687 69.2943L71.8984 72.4282L68.7645 61.0985C70.8843 57.5192 72 53.4454 72 49.2563ZM14.1839 47.1404L6.15179 49.3624L8.37378 41.3303L7.86731 40.5381C5.48053 36.8039 4.21875 32.4758 4.21875 28.022C4.21875 15.1888 14.6591 4.74854 27.4922 4.74854C40.3253 4.74854 50.7656 15.1888 50.7656 28.022C50.7656 40.8551 40.3253 51.2954 27.4922 51.2954C23.0383 51.2954 18.7108 50.0336 14.976 47.6469L14.1839 47.1404ZM65.8482 66.378L59.8881 64.7289L59.0922 65.2469C56.0067 67.2514 52.4218 68.311 48.7266 68.311C40.478 68.311 33.2298 62.9777 30.6617 55.3301C43.2927 53.8739 53.3441 43.8225 54.8009 31.191C62.4479 33.7596 67.7812 41.0078 67.7812 49.2563C67.7812 52.9516 66.7216 56.5364 64.7172 59.6219L64.1992 60.4179L65.8482 66.378Z" fill="#AE2573" />
<path d="M25.3828 38.6392H29.6016V42.8579H25.3828V38.6392Z" fill="#AE2573" />
<path d="M31.7109 21.6235C31.7109 22.8216 31.2231 23.9274 30.3376 24.7376L25.3828 29.2728V34.4204H29.6016V31.1306L33.1859 27.85C34.9294 26.2543 35.9297 23.985 35.9297 21.6235C35.9297 16.9708 32.1449 13.186 27.4922 13.186C22.8395 13.186 19.0547 16.9708 19.0547 21.6235H23.2734C23.2734 19.2972 25.1658 17.4048 27.4922 17.4048C29.8185 17.4048 31.7109 19.2972 31.7109 21.6235Z" fill="#AE2573" />
</g>
<defs>

</defs>
</symbol><clipPath id="pals_clip0_2632:2917">
<rect width="72" height="72" fill="white" transform="translate(0 0.529785)" />
</clipPath><symbol viewBox="0 0 32 32" fill="none" id="plus--blue">
<circle cx="16" cy="16" r="16" fill="#005EB8" />
<path d="M17.3333 9.59998C17.3333 8.8636 16.7364 8.26664 16 8.26664C15.2636 8.26664 14.6666 8.8636 14.6666 9.59998H17.3333ZM14.6666 22.4C14.6666 23.1364 15.2636 23.7333 16 23.7333C16.7364 23.7333 17.3333 23.1364 17.3333 22.4H14.6666ZM9.59998 14.6666C8.8636 14.6666 8.26664 15.2636 8.26664 16C8.26664 16.7364 8.8636 17.3333 9.59998 17.3333V14.6666ZM22.4 17.3333C23.1364 17.3333 23.7333 16.7364 23.7333 16C23.7333 15.2636 23.1364 14.6666 22.4 14.6666V17.3333ZM14.6666 9.59998V22.4H17.3333V9.59998H14.6666ZM9.59998 17.3333H22.4V14.6666H9.59998V17.3333Z" fill="white" />
</symbol><symbol viewBox="0 0 28 29" fill="none" id="printer">
<g clip-path="url(#printer_clip0_6436_8490)">
<path d="M26.3594 10.5146V7.9126C26.3594 6.55564 25.2554 5.45166 23.8984 5.45166H22.5976L17.9166 0.770629C17.9156 0.769645 17.9144 0.768715 17.9134 0.767676C17.768 0.62341 17.5661 0.533777 17.3486 0.530387C17.3444 0.530332 17.3403 0.529785 17.336 0.529785H5.74219C5.28916 0.529785 4.92188 0.897066 4.92188 1.3501V5.45166H4.10156C2.7446 5.45166 1.64062 6.55564 1.64062 7.9126V10.5146C0.685836 10.8533 0 11.7651 0 12.8345V22.7876C0 24.1446 1.10398 25.2485 2.46094 25.2485H4.92188V27.7095C4.92188 28.1625 5.28916 28.5298 5.74219 28.5298H22.2578C22.7108 28.5298 23.0781 28.1625 23.0781 27.7095V25.2485H25.5391C26.896 25.2485 28 24.1446 28 22.7876V12.8345C28 11.7651 27.3142 10.8533 26.3594 10.5146ZM23.0781 7.09229H23.8984C24.3508 7.09229 24.7188 7.46028 24.7188 7.9126V10.3735H23.0781V7.09229ZM18.1562 3.3305L20.2774 5.45166H18.1562V3.3305ZM6.5625 2.17041H16.5156V6.27197C16.5156 6.725 16.8829 7.09229 17.3359 7.09229H21.4375V10.3735H6.5625V2.17041ZM3.28125 7.9126C3.28125 7.46028 3.64924 7.09229 4.10156 7.09229H4.92188V10.3735H3.28125V7.9126ZM21.4375 26.8892H6.5625V18.686H21.4375V26.8892ZM26.3594 22.7876C26.3594 23.2399 25.9914 23.6079 25.5391 23.6079H23.0781V18.686H23.8984C24.3515 18.686 24.7188 18.3188 24.7188 17.8657C24.7188 17.4127 24.3515 17.0454 23.8984 17.0454C23.2287 17.0454 5.04372 17.0454 4.10156 17.0454C3.64853 17.0454 3.28125 17.4127 3.28125 17.8657C3.28125 18.3188 3.64853 18.686 4.10156 18.686H4.92188V23.6079H2.46094C2.00862 23.6079 1.64062 23.2399 1.64062 22.7876V12.8345C1.64062 12.3822 2.00862 12.0142 2.46094 12.0142C3.45308 12.0142 24.4087 12.0142 25.5391 12.0142C25.9914 12.0142 26.3594 12.3822 26.3594 12.8345V22.7876Z" fill="#005EB8" />
<path d="M18.9766 20.3267H9.02344C8.57041 20.3267 8.20312 20.6939 8.20312 21.147C8.20312 21.6 8.57041 21.9673 9.02344 21.9673H18.9766C19.4296 21.9673 19.7969 21.6 19.7969 21.147C19.7969 20.6939 19.4296 20.3267 18.9766 20.3267Z" fill="#005EB8" />
<path d="M18.9766 23.6079H9.02344C8.57041 23.6079 8.20312 23.9752 8.20312 24.4282C8.20312 24.8813 8.57041 25.2485 9.02344 25.2485H18.9766C19.4296 25.2485 19.7969 24.8813 19.7969 24.4282C19.7969 23.9752 19.4296 23.6079 18.9766 23.6079Z" fill="#005EB8" />
<path d="M5.74219 13.6548H4.10156C3.64853 13.6548 3.28125 14.0221 3.28125 14.4751C3.28125 14.9281 3.64853 15.2954 4.10156 15.2954H5.74219C6.19522 15.2954 6.5625 14.9281 6.5625 14.4751C6.5625 14.0221 6.19522 13.6548 5.74219 13.6548Z" fill="#005EB8" />
</g>
<defs>

</defs>
</symbol><clipPath id="printer_clip0_6436_8490">
<rect width="28" height="28" fill="white" transform="translate(0 0.529785)" />
</clipPath><symbol viewBox="0 0 26 26" fill="none" id="search">
<path d="M25.4875 23.3536L19.2356 17.2143C20.8489 15.0924 21.5856 12.4477 21.2976 9.81251C21.0095 7.17734 19.7181 4.74742 17.6831 3.01191C15.6482 1.2764 13.021 0.364168 10.3302 0.458844C7.6395 0.55352 5.08511 1.64808 3.18126 3.52218C1.27741 5.39628 0.165481 7.91076 0.069302 10.5594C-0.026877 13.2081 0.899839 15.7943 2.6629 17.7975C4.42595 19.8006 6.89444 21.0719 9.57143 21.3554C12.2484 21.639 14.9352 20.9137 17.0908 19.3257L23.3275 25.4799C23.4689 25.6203 23.6372 25.7317 23.8225 25.8077C24.0079 25.8837 24.2067 25.9229 24.4075 25.9229C24.6083 25.9229 24.8072 25.8837 24.9925 25.8077C25.1779 25.7317 25.3461 25.6203 25.4875 25.4799C25.6301 25.3407 25.7433 25.1751 25.8205 24.9926C25.8977 24.8102 25.9375 24.6145 25.9375 24.4168C25.9375 24.2191 25.8977 24.0234 25.8205 23.8409C25.7433 23.6584 25.6301 23.4928 25.4875 23.3536ZM3.11133 10.9403C3.11133 9.45951 3.5574 8.01199 4.39314 6.78076C5.22887 5.54954 6.41673 4.58992 7.80651 4.02325C9.19628 3.45658 10.7256 3.30832 12.2009 3.5972C13.6763 3.88609 15.0315 4.59915 16.0952 5.64622C17.1589 6.69329 17.8833 8.02733 18.1768 9.47966C18.4702 10.932 18.3196 12.4374 17.7439 13.8054C17.1683 15.1735 16.1934 16.3428 14.9427 17.1654C13.6919 17.9881 12.2214 18.4272 10.7171 18.4272C8.69994 18.4272 6.76538 17.6384 5.33902 16.2344C3.91265 14.8303 3.11133 12.9259 3.11133 10.9403Z" fill="white" />
</symbol><symbol viewBox="0 0 29 24" fill="none" id="twitter">
<path d="M28.8106 2.93438C27.7295 3.40589 26.5861 3.71925 25.4156 3.86481C26.6492 3.13304 27.5715 1.97423 28.0079 0.607925C26.8528 1.29301 25.5891 1.77545 24.2713 2.03439C23.4633 1.17188 22.4147 0.572271 21.2615 0.313448C20.1084 0.0546248 18.904 0.148553 17.805 0.583026C16.7059 1.0175 15.7629 1.77244 15.0984 2.74978C14.4339 3.72713 14.0787 4.8817 14.0789 6.06354C14.0742 6.51524 14.1201 6.96605 14.2155 7.40758C11.8714 7.2926 9.57792 6.6842 7.48504 5.62215C5.39216 4.5601 3.54698 3.06831 2.07013 1.2443C1.31176 2.54042 1.07675 4.07713 1.41306 5.54066C1.74938 7.00419 2.63166 8.28415 3.87976 9.11919C2.94706 9.09426 2.03404 8.84544 1.21766 8.3937V8.45831C1.21884 9.81934 1.68898 11.1384 2.54891 12.1934C3.40884 13.2483 4.60603 13.9747 5.93888 14.2503C5.4349 14.3831 4.91551 14.4482 4.39435 14.4441C4.02055 14.4508 3.64712 14.4171 3.28051 14.3439C3.66133 15.5133 4.39529 16.536 5.38134 17.2712C6.3674 18.0063 7.55708 18.4177 8.78662 18.4488C6.70037 20.0801 4.12739 20.9649 1.47905 20.9616C1.00746 20.964 0.536207 20.9363 0.0681763 20.8784C2.76252 22.6146 5.90214 23.5331 9.1074 23.5227C19.9488 23.5227 25.8782 14.5377 25.8782 6.75487C25.8782 6.49423 25.8693 6.24324 25.8567 5.99299C27.0191 5.1615 28.0201 4.12501 28.8106 2.93438Z" fill="#005EB8" />
</symbol><symbol viewBox="0 0 32 22" fill="none" id="youtube">
<path d="M30.0103 2.25934C29.1688 0.762218 28.2557 0.486908 26.3962 0.382692C24.539 0.256701 19.868 0.20459 15.8191 0.20459C11.7703 0.20459 7.09224 0.256695 5.23659 0.381132C3.38093 0.48768 2.46555 0.76144 1.61627 2.26012C0.752217 3.75413 0.30658 6.32918 0.30658 10.8587V10.8742C0.30658 15.385 0.752217 17.9819 1.61938 19.4619C2.46866 20.9613 3.38171 21.2335 5.23736 21.358C7.09458 21.4669 11.7703 21.5306 15.8214 21.5306C19.8726 21.5306 24.539 21.4669 26.3985 21.3603C28.2581 21.2343 29.1711 20.9629 30.0126 19.4658C30.8868 17.9881 31.3293 15.392 31.3293 10.8781V10.8626C31.3293 6.32919 30.8868 3.75413 30.0103 2.25934ZM11.9398 16.6846V5.05138L21.6342 10.868L11.9398 16.6846Z" fill="#005EB8" />
</symbol></defs></svg>