<svg width="39" height="36" viewBox="0 0 39 36" fill="none" xmlns="http://www.w3.org/2000/svg">
<path opacity="0.4" d="M0 20.3684C0 17.4211 0.105264 14.9474 0.31579 12.9474C0.63158 10.9474 1.1579 9.21053 1.89474 7.73684C2.63158 6.1579 3.63158 4.78948 4.89474 3.63158C6.26316 2.47369 7.94737 1.26316 9.94737 0L14.2105 5.21052C12.6316 5.94737 11.3158 6.68421 10.2632 7.42106C9.31579 8.1579 8.52632 9.10526 7.89474 10.2632C7.36842 11.3158 7 12.6842 6.78947 14.3684C6.68421 15.9474 6.63158 17.9474 6.63158 20.3684H15.7895V36H0V20.3684ZM22.7368 20.3684C22.7368 17.4211 22.8421 14.9474 23.0526 12.9474C23.3684 10.9474 23.8947 9.21053 24.6316 7.73684C25.3684 6.1579 26.3684 4.78948 27.6316 3.63158C29 2.47369 30.6842 1.26316 32.6842 0L36.9474 5.21052C35.3684 5.94737 34.0526 6.68421 33 7.42106C32.0526 8.1579 31.2632 9.10526 30.6316 10.2632C30.1053 11.3158 29.7368 12.6842 29.5263 14.3684C29.421 15.9474 29.3684 17.9474 29.3684 20.3684H38.5263V36H22.7368V20.3684Z" fill="#005EB8"/>
</svg>
