<svg width="16" height="16" viewBox="0 0 16 16" fill="none" xmlns="http://www.w3.org/2000/svg">
<path d="M9.41 8L14.71 2.71C15.1021 2.31788 15.1021 1.68212 14.71 1.29C14.3179 0.897876 13.6821 0.897876 13.29 1.29L8 6.59L2.71 1.29C2.31788 0.897876 1.68212 0.897876 1.29 1.29C0.897878 1.68212 0.897878 2.31788 1.29 2.71L6.59 8L1.29 13.29C1.10069 13.4778 0.994202 13.7334 0.994202 14C0.994202 14.2666 1.10069 14.5222 1.29 14.71C1.47777 14.8993 1.73336 15.0058 2 15.0058C2.26664 15.0058 2.52223 14.8993 2.71 14.71L8 9.41L13.29 14.71C13.4778 14.8993 13.7334 15.0058 14 15.0058C14.2666 15.0058 14.5222 14.8993 14.71 14.71C14.8993 14.5222 15.0058 14.2666 15.0058 14C15.0058 13.7334 14.8993 13.4778 14.71 13.29L9.41 8Z" fill="#005EB8"/>
</svg>
