<svg width="27" height="26" viewBox="0 0 27 26" fill="none" xmlns="http://www.w3.org/2000/svg">
<path d="M26.4469 23.3275L20.1708 17.0908C21.7903 14.9352 22.5299 12.2484 22.2408 9.57143C21.9516 6.89444 20.6552 4.42595 18.6124 2.6629C16.5696 0.899839 13.9322 -0.026877 11.2311 0.069302C8.52996 0.165481 5.96571 1.27741 4.05451 3.18126C2.14331 5.08511 1.02708 7.6395 0.930534 10.3302C0.833984 13.021 1.76428 15.6482 3.53414 17.6831C5.30401 19.7181 7.78202 21.0095 10.4694 21.2976C13.1567 21.5856 15.8538 20.8489 18.0177 19.2356L24.2785 25.4875C24.4205 25.6301 24.5894 25.7433 24.7755 25.8205C24.9615 25.8977 25.1611 25.9375 25.3627 25.9375C25.5643 25.9375 25.7639 25.8977 25.95 25.8205C26.1361 25.7433 26.305 25.6301 26.4469 25.4875C26.59 25.3461 26.7036 25.1779 26.7812 24.9925C26.8587 24.8072 26.8986 24.6083 26.8986 24.4075C26.8986 24.2067 26.8587 24.0079 26.7812 23.8225C26.7036 23.6372 26.59 23.4689 26.4469 23.3275ZM3.98431 10.7171C3.98431 9.21283 4.4321 7.74233 5.27107 6.49157C6.11003 5.24081 7.30247 4.26595 8.69761 3.69029C10.0928 3.11463 11.6279 2.96401 13.109 3.25748C14.5901 3.55095 15.9505 4.27533 17.0183 5.33902C18.0861 6.4027 18.8133 7.75792 19.1079 9.2333C19.4025 10.7087 19.2513 12.2379 18.6734 13.6277C18.0955 15.0175 17.1169 16.2054 15.8613 17.0411C14.6057 17.8768 13.1295 18.3229 11.6195 18.3229C9.59449 18.3229 7.65246 17.5216 6.22059 16.0952C4.78873 14.6689 3.98431 12.7343 3.98431 10.7171Z" fill="#9EA7AF"/>
</svg>
