<svg id="Layer_1" data-name="Layer 1" xmlns="http://www.w3.org/2000/svg" viewBox="0 0 150 150"><defs><style>.cls-1{fill:#fff;}.cls-2{fill:#005eb8;}</style></defs><title>150pxthumb</title><rect class="cls-1" width="150" height="150"/><path class="cls-2" d="M141.78,101.89V48.11H8.22v53.78ZM61.92,53.3,52.7,96.59H38.23l-9.1-30H29L23,96.59H12l9.3-43.29H35.8l8.91,30h.13l6.1-30Zm41.38,0-9,43.29H82.61l3.87-18.54H72.69L68.83,96.59H57.18l9-43.29H77.87L74.45,69.86H88.22L91.65,53.3Zm33.48,1.18L134,63.1a22,22,0,0,0-9.6-2c-4.61,0-8.35.67-8.35,4.15,0,6.14,16.9,3.85,16.9,17,0,12-11.17,15.07-21.26,15.07A48.73,48.73,0,0,1,98.2,95.1l2.74-8.81c2.3,1.49,6.92,2.49,10.72,2.49,3.62,0,9.28-.69,9.28-5.15,0-6.95-16.89-4.34-16.89-16.56,0-11.17,9.85-14.51,19.39-14.51,5.36,0,10.41.56,13.34,1.92Z"/></svg>